<?xml version="1.0" encoding="UTF-8"?>
<svg width="200px" height="150px" viewBox="0 0 200 150" version="1.1" xmlns="http://www.w3.org/2000/svg">
    <g stroke="none" stroke-width="1" fill="none" fill-rule="evenodd">
        <rect fill="#F3F4F6" x="0" y="0" width="200" height="150" rx="8"/>
        <circle fill="#8B6D9C" cx="60" cy="60" r="20"/>
        <path d="M60,45 C67.1797017,45 73,50.8202983 73,58 C73,65.1797017 67.1797017,71 60,71 C52.8202983,71 47,65.1797017 47,58 C47,50.8202983 52.8202983,45 60,45 Z M60,73 C73.8071187,73 85,84.1928813 85,98 L85,105 L35,105 L35,98 C35,84.1928813 46.1928813,73 60,73 Z" fill="#8B6D9C" opacity="0.3"/>
        <circle fill="#36E2C3" cx="140" cy="60" r="20"/>
        <path d="M140,45 C147.179702,45 153,50.8202983 153,58 C153,65.1797017 147.179702,71 140,71 C132.820298,71 127,65.1797017 127,58 C127,50.8202983 132.820298,45 140,45 Z M140,73 C153.807119,73 165,84.1928813 165,98 L165,105 L115,105 L115,98 C115,84.1928813 126.192881,73 140,73 Z" fill="#36E2C3" opacity="0.3"/>
        <rect fill="#8B6D9C" x="85" y="60" width="30" height="8" rx="4"/>
        <polygon fill="#8B6D9C" points="120 64 130 60 120 56"/>
    </g>
</svg>
